TITLE ""
FILE "P1Q_t_0678-0687.mp3" MP3
  TRACK 01 AUDIO
    TITLE "P1Q_t_0678-0687_01"
    INDEX 01 00:00:00
  TRACK 02 AUDIO
    TITLE "P1Q_t_0678-0687_02"
    INDEX 01 00:01:22
  TRACK 03 AUDIO
    TITLE "P1Q_t_0678-0687_03"
    INDEX 01 00:01:41
  TRACK 04 AUDIO
    TITLE "P1Q_t_0678-0687_04"
    INDEX 01 00:04:67
  TRACK 05 AUDIO
    TITLE "P1Q_t_0678-0687_05"
    INDEX 01 00:05:11
  TRACK 06 AUDIO
    TITLE "P1Q_t_0678-0687_06"
    INDEX 01 00:09:33
  TRACK 07 AUDIO
    TITLE "P1Q_t_0678-0687_07"
    INDEX 01 00:10:05
  TRACK 08 AUDIO
    TITLE "P1Q_t_0678-0687_08"
    INDEX 01 00:11:12
  TRACK 09 AUDIO
    TITLE "P1Q_t_0678-0687_09"
    INDEX 01 00:11:34
  TRACK 10 AUDIO
    TITLE "P1Q_t_0678-0687_10"
    INDEX 01 00:14:20
  TRACK 11 AUDIO
    TITLE "P1Q_t_0678-0687_11"
    INDEX 01 00:14:40
  TRACK 12 AUDIO
    TITLE "P1Q_t_0678-0687_12"
    INDEX 01 00:18:36
  TRACK 13 AUDIO
    TITLE "P1Q_t_0678-0687_13"
    INDEX 01 00:19:08
  TRACK 14 AUDIO
    TITLE "P1Q_t_0678-0687_14"
    INDEX 01 00:20:21
  TRACK 15 AUDIO
    TITLE "P1Q_t_0678-0687_15"
    INDEX 01 00:20:44
  TRACK 16 AUDIO
    TITLE "P1Q_t_0678-0687_16"
    INDEX 01 00:22:63
  TRACK 17 AUDIO
    TITLE "P1Q_t_0678-0687_17"
    INDEX 01 00:23:09
  TRACK 18 AUDIO
    TITLE "P1Q_t_0678-0687_18"
    INDEX 01 00:27:58
  TRACK 19 AUDIO
    TITLE "P1Q_t_0678-0687_19"
    INDEX 01 00:28:30
  TRACK 20 AUDIO
    TITLE "P1Q_t_0678-0687_20"
    INDEX 01 00:29:51
  TRACK 21 AUDIO
    TITLE "P1Q_t_0678-0687_21"
    INDEX 01 00:29:75
  TRACK 22 AUDIO
    TITLE "P1Q_t_0678-0687_22"
    INDEX 01 00:32:71
  TRACK 23 AUDIO
    TITLE "P1Q_t_0678-0687_23"
    INDEX 01 00:33:16
  TRACK 24 AUDIO
    TITLE "P1Q_t_0678-0687_24"
    INDEX 01 00:39:14
  TRACK 25 AUDIO
    TITLE "P1Q_t_0678-0687_25"
    INDEX 01 00:39:61
  TRACK 26 AUDIO
    TITLE "P1Q_t_0678-0687_26"
    INDEX 01 00:40:65
  TRACK 27 AUDIO
    TITLE "P1Q_t_0678-0687_27"
    INDEX 01 00:41:11
  TRACK 28 AUDIO
    TITLE "P1Q_t_0678-0687_28"
    INDEX 01 00:43:28
  TRACK 29 AUDIO
    TITLE "P1Q_t_0678-0687_29"
    INDEX 01 00:43:47
  TRACK 30 AUDIO
    TITLE "P1Q_t_0678-0687_30"
    INDEX 01 00:47:27
  TRACK 31 AUDIO
    TITLE "P1Q_t_0678-0687_31"
    INDEX 01 00:47:71
  TRACK 32 AUDIO
    TITLE "P1Q_t_0678-0687_32"
    INDEX 01 00:49:17
  TRACK 33 AUDIO
    TITLE "P1Q_t_0678-0687_33"
    INDEX 01 00:49:34
  TRACK 34 AUDIO
    TITLE "P1Q_t_0678-0687_34"
    INDEX 01 00:53:54
  TRACK 35 AUDIO
    TITLE "P1Q_t_0678-0687_35"
    INDEX 01 00:54:02
  TRACK 36 AUDIO
    TITLE "P1Q_t_0678-0687_36"
    INDEX 01 00:58:68
  TRACK 37 AUDIO
    TITLE "P1Q_t_0678-0687_37"
    INDEX 01 00:59:40
  TRACK 38 AUDIO
    TITLE "P1Q_t_0678-0687_38"
    INDEX 01 01:00:52
  TRACK 39 AUDIO
    TITLE "P1Q_t_0678-0687_39"
    INDEX 01 01:00:73
  TRACK 40 AUDIO
    TITLE "P1Q_t_0678-0687_40"
    INDEX 01 01:05:22
  TRACK 41 AUDIO
    TITLE "P1Q_t_0678-0687_41"
    INDEX 01 01:05:41
  TRACK 42 AUDIO
    TITLE "P1Q_t_0678-0687_42"
    INDEX 01 01:11:75
  TRACK 43 AUDIO
    TITLE "P1Q_t_0678-0687_43"
    INDEX 01 01:12:45
  TRACK 44 AUDIO
    TITLE "P1Q_t_0678-0687_44"
    INDEX 01 01:13:58
  TRACK 45 AUDIO
    TITLE "P1Q_t_0678-0687_45"
    INDEX 01 01:14:05
  TRACK 46 AUDIO
    TITLE "P1Q_t_0678-0687_46"
    INDEX 01 01:19:39
  TRACK 47 AUDIO
    TITLE "P1Q_t_0678-0687_47"
    INDEX 01 01:19:59
  TRACK 48 AUDIO
    TITLE "P1Q_t_0678-0687_48"
    INDEX 01 01:24:21
  TRACK 49 AUDIO
    TITLE "P1Q_t_0678-0687_49"
    INDEX 01 01:24:66
  TRACK 50 AUDIO
    TITLE "P1Q_t_0678-0687_50"
    INDEX 01 01:26:22
  TRACK 51 AUDIO
    TITLE "P1Q_t_0678-0687_51"
    INDEX 01 01:26:43
  TRACK 52 AUDIO
    TITLE "P1Q_t_0678-0687_52"
    INDEX 01 01:32:14
  TRACK 53 AUDIO
    TITLE "P1Q_t_0678-0687_53"
    INDEX 01 01:32:34
  TRACK 54 AUDIO
    TITLE "P1Q_t_0678-0687_54"
    INDEX 01 01:38:27
  TRACK 55 AUDIO
    TITLE "P1Q_t_0678-0687_55"
    INDEX 01 01:39:01
  TRACK 56 AUDIO
    TITLE "P1Q_t_0678-0687_56"
    INDEX 01 01:40:28
  TRACK 57 AUDIO
    TITLE "P1Q_t_0678-0687_57"
    INDEX 01 01:40:49
  TRACK 58 AUDIO
    TITLE "P1Q_t_0678-0687_58"
    INDEX 01 01:44:02
  TRACK 59 AUDIO
    TITLE "P1Q_t_0678-0687_59"
    INDEX 01 01:44:20
  TRACK 60 AUDIO
    TITLE "P1Q_t_0678-0687_60"
    INDEX 01 01:49:40
